<svg width="72" height="72" viewBox="0 0 72 72" fill="none" xmlns="http://www.w3.org/2000/svg">
<g clip-path="url(#clip0_866_3639)">
<circle cx="36" cy="36" r="35" fill="url(#paint0_linear_866_3639)" stroke="#DBDBDB" stroke-width="2"/>
<path fill-rule="evenodd" clip-rule="evenodd" d="M25.1005 22.5473C25.1005 25.765 25.1005 29.3369 25.0689 32.6586L25.0676 32.7602C25.0605 33.3349 25.0572 33.6046 24.2998 33.9396C24.2381 33.9662 24.1553 34.0054 24.0632 34.049C23.9035 34.1246 23.716 34.2133 23.5623 34.2728C23.0777 34.4707 22.6353 34.2728 22.6457 33.5751C22.6562 32.1797 22.6457 30.7843 22.6353 29.3888C22.6353 28.8266 22.6353 28.2641 22.6457 27.6914V21.7454C22.6457 21.0373 22.9302 20.7978 23.8152 21.183L23.8469 21.1966C24.8426 21.6227 25.1005 21.7331 25.1005 22.5473ZM56.5599 29.6596C56.4966 32.315 54.5159 34.2728 51.7873 34.252C49.1217 34.2416 47.0779 32.2421 47.1306 29.5242C47.1306 26.7127 49.3114 24.8173 51.861 24.8487C54.7477 24.8798 56.6231 27.0042 56.5599 29.6596ZM39.2582 35.8489C39.2424 37.3005 39.2444 38.7523 39.2464 40.1997C39.2471 40.6834 39.2477 41.1666 39.2477 41.6492C39.2477 42.1276 39.2471 42.6066 39.2464 43.086V43.0869L39.2464 43.092V43.093V43.094V43.095V43.096V43.097V43.0979V43.0989C39.2444 44.5456 39.2424 45.9952 39.2582 47.439C39.2582 47.8868 39.0896 48.0638 38.6471 48.0429C38.2611 48.0221 37.8742 48.0221 37.4882 48.0429C36.9825 48.0742 36.7928 47.8347 36.7928 47.3662V35.9946C36.7928 35.3386 36.8877 35.2448 37.5409 35.2344C37.6639 35.2344 37.7868 35.2356 37.9097 35.2367H37.9098H37.9098H37.9098H37.9098C38.1556 35.239 38.4013 35.2413 38.6471 35.2344C39.1001 35.2137 39.2582 35.4116 39.2582 35.8489ZM59.5072 40.6863L59.5133 40.6712L59.5229 40.6473C59.6443 40.3457 59.7656 40.0443 59.8869 39.7435C60.1187 39.1708 60.0134 39.0041 59.3917 39.0041C59.2586 39.0041 59.1265 39.0058 58.995 39.0075L58.9948 39.0075H58.9948C58.668 39.0118 58.345 39.0159 58.022 38.9938C57.6217 38.9729 57.4216 39.1187 57.2951 39.4935C57.0713 40.194 56.8211 40.8842 56.5706 41.5749L56.5706 41.575L56.5706 41.575L56.5706 41.5751C56.4674 41.8597 56.3641 42.1445 56.2627 42.4301C56.1691 42.6884 56.0682 42.9609 55.9645 43.2413L55.9639 43.243L55.9635 43.2439L55.9634 43.2442L55.9632 43.2447C55.7871 43.7209 55.6025 44.2199 55.4304 44.7107C55.4304 44.7107 54.0185 41.0972 53.3653 39.4518C53.2389 39.1395 53.0704 38.9833 52.7121 39.0041C52.359 39.0264 52.0112 39.0222 51.6612 39.0179H51.6611H51.6611H51.6611H51.661H51.661C51.5202 39.0162 51.3792 39.0145 51.2372 39.0145C50.4681 39.0145 50.4365 39.0561 50.7526 39.7643C51.8587 42.2531 54.282 47.7618 54.282 47.7618C54.0762 48.2499 53.8295 48.7202 53.5445 49.1676C53.2389 49.678 52.7859 49.7924 52.217 49.6675C51.3263 49.4604 51.3215 49.4695 50.8964 50.2895L50.8896 50.3028C50.8262 50.4068 50.7631 50.511 50.7104 50.615C50.5524 50.9067 50.4576 51.2399 50.7842 51.4064C50.8683 51.45 50.9478 51.4985 51.0298 51.5484C51.3788 51.761 51.7711 52 52.7438 52C54.4505 52 55.4936 50.4589 55.9255 49.428C56.6419 47.7202 57.5058 45.6271 58.2012 43.9089C58.6412 42.8378 59.0748 41.7605 59.5071 40.6866L59.5071 40.6866L59.5071 40.6864L59.5072 40.6863ZM48.5911 38.9984C48.7773 39.003 48.9619 39.0076 49.1512 38.9938C49.6252 38.9417 49.7728 39.202 49.7728 39.6081V47.4181C49.7728 47.8556 49.5831 48.095 49.0985 48.0534C48.9365 48.0395 48.7698 48.0442 48.6048 48.0488H48.6048L48.6047 48.0488C48.5228 48.0511 48.4413 48.0534 48.361 48.0534L48.3333 48.0534C47.5145 48.0535 47.3495 48.0536 47.3495 47.137C46.8334 47.7514 45.9694 48.1783 44.9158 48.2304C43.6094 48.1992 43.0299 47.9805 42.1345 47.262C39.6165 45.2314 39.8271 41.2221 42.5559 39.4727C43.936 38.5876 45.6322 38.5355 46.9808 39.5768C47.0331 39.613 47.088 39.6492 47.1506 39.6905C47.2142 39.7324 47.2857 39.7795 47.3706 39.8373C47.3843 39.7376 47.3946 39.6496 47.4037 39.5718L47.4037 39.5714L47.4038 39.5712C47.4716 38.9916 47.4724 38.9845 48.3083 38.9938C48.4035 38.9938 48.4975 38.9961 48.5911 38.9984ZM42.8404 43.4819C42.8404 44.8981 43.7885 45.9499 45.0844 45.9186C46.4119 45.8874 47.3495 44.9397 47.3601 43.4923C47.3706 41.9198 46.1484 41.0972 45.0633 41.0868C43.7358 41.0868 42.6823 42.3676 42.8404 43.4819ZM28.5648 39.7821L28.5646 39.8892C31.1036 37.5046 34.8438 39.2957 35.5181 42.3469C36.0238 44.6378 35.0439 46.8142 33.0738 47.7826C31.778 48.4074 30.5031 48.397 29.2705 47.6056C29.1229 47.5015 28.986 47.4078 28.7331 47.2515C28.7331 47.6898 28.7344 48.1161 28.7355 48.5345V48.5349V48.5349V48.535V48.5353C28.7378 49.3492 28.7401 50.1331 28.7331 50.9171C28.7225 51.7918 28.712 51.7918 27.8166 51.7918C27.7112 51.7918 27.6058 51.7895 27.5005 51.7872C27.2897 51.7826 27.079 51.778 26.8684 51.7918C26.4574 51.8126 26.3206 51.6043 26.3206 51.2294V39.5456C26.3206 39.1603 26.468 38.9624 26.8789 38.9938C27.1422 39.0145 27.6164 39.0041 27.8797 38.9938C28.5675 38.9838 28.5669 39.1791 28.5648 39.7821ZM30.9667 45.9083C29.6708 45.929 28.6804 44.8461 28.6909 43.4819C28.7015 42.0761 29.6813 41.066 31.072 41.1181C32.5049 41.1702 33.2319 42.1489 33.253 43.5027C33.274 44.9085 32.3258 45.8874 30.9667 45.9083ZM51.7557 27.1603C53.1568 27.1603 54.1156 28.1184 54.1261 29.5347C54.1367 30.8988 53.1779 31.9505 51.903 31.9714C50.6298 31.9782 49.5786 30.9897 49.522 29.7326C49.4378 28.2121 50.5545 27.15 51.7557 27.1603ZM39.026 33.4395C39.0152 33.6027 39.0015 33.8122 38.9443 33.9083C38.7863 34.1999 37.0057 34.179 36.8267 33.8875C36.7581 33.752 36.7255 33.6015 36.7319 33.4501C36.7319 29.6075 36.7319 25.6505 36.7214 21.8079C36.7214 21.3393 36.932 21.1518 37.3851 21.1623C37.4649 21.1644 37.5444 21.167 37.6235 21.1695C37.9308 21.1795 38.234 21.1892 38.5439 21.1727C39.0497 21.1518 39.2183 21.3914 39.2183 21.86C39.2183 22.9951 39.2394 25.7441 39.2498 25.7859C39.7977 25.2027 40.8408 24.8278 41.673 24.8278C42.9057 24.8278 44.1384 25.3067 45.1603 26.5459C46.4667 28.108 46.4773 31.2008 45.0339 32.7524C44.2437 33.6584 43.3271 34.2728 41.7995 34.2728C40.7864 34.2848 39.8082 33.9077 39.0708 33.2211C39.0419 33.1973 39.035 33.3019 39.026 33.4395V33.4395ZM43.6854 29.5763C43.6959 28.1705 42.7477 27.1708 41.4202 27.1708C40.1559 27.1603 39.1867 28.0976 39.1551 29.5451C39.1234 30.9197 40.1453 31.9714 41.4307 31.9714C42.716 31.961 43.6748 30.9404 43.6854 29.5763ZM30.9478 24.8382C28.2192 24.807 26.2279 27.0354 26.1962 29.4514C26.1541 32.1797 28.1981 34.2936 30.9267 34.2832C33.6344 34.2728 35.6362 32.2526 35.6572 29.5347C35.6467 27.0251 33.7713 24.8694 30.9478 24.8382ZM28.6089 29.4514C28.5668 30.8155 29.5887 31.9505 30.874 31.9714C32.1593 31.9923 33.1602 30.9716 33.2024 29.6388C33.234 28.285 32.2858 27.2021 31.0426 27.1708C29.6836 27.1396 28.6511 28.108 28.6089 29.4514ZM19.2955 25.0985C19.4745 24.9736 19.8854 24.9631 20.1383 24.9736C20.9065 24.9794 21.2304 24.962 21.3649 25.1132C21.4684 25.2294 21.4598 25.4454 21.4552 25.8483C21.4514 26.5405 21.4531 27.3403 21.4548 28.1704C21.4579 29.6504 21.4612 31.2266 21.4342 32.4608C21.4552 34.9601 20.6545 38.1153 16.3454 38.1153C14.5334 38.1153 13.1849 37.4906 12.4789 36.9386C12.0891 36.6262 12.0153 36.3866 12.2261 36.0014C12.3364 35.7989 12.4409 35.5904 12.5439 35.3849C12.5785 35.3157 12.613 35.2469 12.6475 35.1788C12.8898 34.6997 13.1215 34.6164 13.6062 34.8976C14.5228 35.4287 15.4815 35.7515 16.5773 35.7099C18.2735 35.6786 18.9161 34.6268 18.874 33.1794C18.5053 33.6063 17.7782 34.0853 16.4824 34.0957C15.5447 34.0957 14.5018 33.7521 13.817 33.2315C12.3419 32.138 11.7941 30.5968 12.068 28.8577C12.3631 26.9313 13.4798 25.5671 15.4393 24.984C16.7669 24.5882 17.9995 24.8903 19.0847 25.9108C19.0742 25.4942 19.1164 25.2339 19.2955 25.0985ZM14.428 29.5242C14.4386 31.0551 15.4077 31.9193 16.7353 31.9298C17.9784 31.9505 18.9899 31.0134 18.9793 29.5451C18.9899 28.1497 18.0628 27.1916 16.7458 27.1603C15.4393 27.1291 14.4175 28.0559 14.428 29.5242Z" fill="white"/>
</g>
<defs>
<linearGradient id="paint0_linear_866_3639" x1="14.4014" y1="58.208" x2="58.8174" y2="101.405" gradientUnits="userSpaceOnUse">
<stop stop-color="#FE262B"/>
<stop offset="1" stop-color="#FE8902"/>
</linearGradient>
<clipPath id="clip0_866_3639">
<rect width="72" height="72" fill="white"/>
</clipPath>
</defs>
</svg>
