<svg width="32" height="32" viewBox="0 0 32 32" fill="none" xmlns="http://www.w3.org/2000/svg">
<circle cx="15.9999" cy="15.9999" r="15.5556" fill="url(#paint0_radial_4552_11266)"/>
<circle cx="15.9999" cy="15.9999" r="15.5556" fill="url(#paint1_radial_4552_11266)"/>
<circle cx="15.9999" cy="15.9999" r="15.5556" fill="url(#paint2_radial_4552_11266)"/>
<circle cx="15.9999" cy="15.9999" r="15.5556" fill="url(#paint3_radial_4552_11266)"/>
<path d="M12.6868 8.05595C11.8356 8.09611 11.2543 8.23195 10.7461 8.43163C10.2202 8.6366 9.77443 8.91164 9.33091 9.35676C8.88738 9.80189 8.61426 10.248 8.41074 10.7747C8.21378 11.284 8.08033 11.8657 8.04273 12.7174C8.00513 13.5691 7.99681 13.8429 8.00097 16.0154C8.00513 18.1879 8.01473 18.4602 8.05601 19.3137C8.09665 20.1647 8.23202 20.7458 8.4317 21.2542C8.63698 21.7801 8.9117 22.2257 9.35699 22.6694C9.80227 23.1131 10.248 23.3855 10.776 23.5894C11.2848 23.786 11.8668 23.9201 12.7183 23.9574C13.5698 23.9947 13.8439 24.0033 16.0158 23.9992C18.1876 23.995 18.4611 23.9854 19.3144 23.9449C20.1677 23.9044 20.7457 23.7681 21.2542 23.5694C21.7802 23.3636 22.2261 23.0894 22.6694 22.6439C23.1128 22.1985 23.3858 21.7521 23.5891 21.225C23.7863 20.7162 23.9202 20.1343 23.9571 19.2834C23.9944 18.4295 24.0032 18.1569 23.9991 15.9847C23.9949 13.8125 23.9851 13.5402 23.9447 12.687C23.9042 11.8339 23.7687 11.2545 23.5691 10.7459C23.3635 10.22 23.0891 9.77469 22.644 9.33068C22.1989 8.88668 21.7522 8.61388 21.2253 8.41099C20.7161 8.21403 20.1345 8.07979 19.283 8.04299C18.4315 8.00619 18.1574 7.99675 15.9847 8.00091C13.8121 8.00507 13.5401 8.01435 12.6868 8.05595ZM12.7802 22.5182C12.0002 22.4843 11.5767 22.3547 11.2944 22.2462C10.9207 22.1022 10.6544 21.9281 10.3732 21.6495C10.0919 21.371 9.91907 21.1038 9.77315 20.7308C9.66355 20.4486 9.53155 20.0255 9.49507 19.2455C9.45539 18.4025 9.44707 18.1493 9.44243 16.0135C9.43779 13.8776 9.44595 13.6248 9.48291 12.7814C9.51619 12.0021 9.64659 11.5781 9.75491 11.296C9.89891 10.9217 10.0724 10.656 10.3516 10.3749C10.6308 10.0937 10.8972 9.92061 11.2704 9.77469C11.5524 9.66461 11.9754 9.53373 12.7551 9.49661C13.5988 9.4566 13.8516 9.4486 15.9871 9.44396C18.1227 9.43932 18.3761 9.44732 19.2201 9.48444C19.9995 9.51837 20.4237 9.64749 20.7054 9.75645C21.0793 9.90045 21.3454 10.0734 21.6266 10.3531C21.9077 10.6328 22.081 10.8982 22.2269 11.2723C22.3371 11.5534 22.468 11.9763 22.5048 12.7565C22.545 13.6002 22.5541 13.8531 22.5579 15.9885C22.5618 18.1239 22.5542 18.3775 22.5173 19.2205C22.4832 20.0006 22.3539 20.4242 22.2453 20.7068C22.1013 21.0804 21.9277 21.3468 21.6483 21.6278C21.3689 21.9087 21.1029 22.0819 20.7294 22.2278C20.4478 22.3377 20.0243 22.4689 19.2452 22.506C18.4016 22.5457 18.1488 22.554 16.0124 22.5587C13.8761 22.5633 13.6241 22.5547 12.7804 22.5182M19.302 11.7243C19.3024 11.9142 19.359 12.0997 19.4648 12.2574C19.5705 12.4151 19.7207 12.5379 19.8962 12.6103C20.0718 12.6826 20.2649 12.7013 20.451 12.6639C20.6372 12.6266 20.8081 12.5348 20.9421 12.4003C21.0762 12.2658 21.1673 12.0945 21.204 11.9082C21.2407 11.7219 21.2213 11.5289 21.1483 11.3536C21.0753 11.1783 20.9519 11.0286 20.7938 10.9234C20.6358 10.8183 20.45 10.7623 20.2601 10.7627C20.0056 10.7632 19.7617 10.8648 19.582 11.0451C19.4023 11.2254 19.3016 11.4698 19.302 11.7243ZM11.8924 16.008C11.8969 18.2769 13.7394 20.1119 16.0078 20.1076C18.2761 20.1033 20.1125 18.2609 20.1081 15.992C20.1038 13.7232 18.2608 11.8877 15.9921 11.8921C13.7234 11.8966 11.8881 13.7395 11.8924 16.008ZM13.3333 16.0052C13.3323 15.4777 13.4877 14.9618 13.7798 14.5227C14.072 14.0836 14.4878 13.741 14.9747 13.5381C15.4616 13.3353 15.9977 13.2815 16.5152 13.3833C17.0327 13.4852 17.5083 13.7383 17.882 14.1105C18.2557 14.4827 18.5106 14.9573 18.6146 15.4744C18.7185 15.9915 18.6667 16.5278 18.4659 17.0155C18.265 17.5032 17.924 17.9204 17.486 18.2143C17.0481 18.5081 16.5328 18.6656 16.0054 18.6666C15.6552 18.6674 15.3082 18.5991 14.9844 18.4657C14.6606 18.3324 14.3662 18.1365 14.1181 17.8894C13.8699 17.6422 13.6729 17.3486 13.5383 17.0253C13.4036 16.702 13.334 16.3554 13.3333 16.0052Z" fill="white"/>
<circle cx="16" cy="16" r="15.5" stroke="#DBDBDB"/>
<defs>
<radialGradient id="paint0_radial_4552_11266" cx="0" cy="0" r="1" gradientUnits="userSpaceOnUse" gradientTransform="translate(30.5509 15.0265) rotate(164.25) scale(19.8782 14.3213)">
<stop stop-color="#FF005F"/>
<stop offset="1" stop-color="#FC01D8"/>
</radialGradient>
<radialGradient id="paint1_radial_4552_11266" cx="0" cy="0" r="1" gradientUnits="userSpaceOnUse" gradientTransform="translate(8.70799 33.9516) rotate(-90) scale(24.8335 26.3478)">
<stop stop-color="#FFCC00"/>
<stop offset="0.1242" stop-color="#FFCC00"/>
<stop offset="0.5672" stop-color="#FE4A05"/>
<stop offset="0.6942" stop-color="#FF0F3F"/>
<stop offset="1" stop-color="#FE0657" stop-opacity="0"/>
</radialGradient>
<radialGradient id="paint2_radial_4552_11266" cx="0" cy="0" r="1" gradientUnits="userSpaceOnUse" gradientTransform="translate(6.27767 3.25298) rotate(145.84) scale(29.2426 9.96293)">
<stop stop-color="#7038FD"/>
<stop offset="1" stop-color="#820BFF" stop-opacity="0"/>
</radialGradient>
<radialGradient id="paint3_radial_4552_11266" cx="0" cy="0" r="1" gradientUnits="userSpaceOnUse" gradientTransform="translate(16.7861 31.1167) rotate(-59.8703) scale(10.2689 13.3689)">
<stop stop-color="#FFCC00"/>
<stop offset="1" stop-color="#FFCC00" stop-opacity="0"/>
</radialGradient>
</defs>
</svg>
