<svg width="32" height="32" viewBox="0 0 32 32" fill="none" xmlns="http://www.w3.org/2000/svg">
<circle cx="16" cy="16" r="15.5" fill="black" stroke="#DBDBDB"/>
<path d="M13.7153 13.9081V13.058C13.4239 13.0182 13.1277 12.9932 12.8254 12.9932C9.18427 12.9932 6.22217 15.9553 6.22217 19.5963C6.22217 21.8302 7.33872 23.807 9.04128 25.0025C7.94192 23.8227 7.26761 22.242 7.26761 20.5066C7.26761 16.9179 10.1461 13.9909 13.7153 13.9073V13.9081Z" fill="#25F4EE"/>
<path d="M13.8708 23.5233C15.4952 23.5233 16.8204 22.231 16.8806 20.6214L16.886 6.24377H19.5129C19.4583 5.94842 19.4286 5.64447 19.4286 5.3335H15.8406L15.8351 19.7111C15.775 21.3215 14.4498 22.613 12.8254 22.613C12.3206 22.613 11.8448 22.4865 11.4268 22.2669C11.9753 23.0264 12.8652 23.5241 13.8716 23.5241L13.8708 23.5233Z" fill="#25F4EE"/>
<path d="M24.42 11.1234V10.324C23.4183 10.324 22.4846 10.0263 21.7017 9.51611C22.3986 10.3162 23.3456 10.8936 24.42 11.1234Z" fill="#25F4EE"/>
<path d="M21.7017 9.51546C20.9384 8.63878 20.4742 7.4941 20.4742 6.24316H19.5132C19.7663 7.60974 20.5774 8.78255 21.7017 9.51546Z" fill="#FE2C55"/>
<path d="M12.8256 16.581C11.1629 16.581 9.80957 17.9335 9.80957 19.597C9.80957 20.755 10.4667 21.7614 11.4262 22.2661C11.0683 21.7707 10.855 21.1636 10.855 20.5073C10.855 18.8446 12.2083 17.4913 13.871 17.4913C14.1812 17.4913 14.4789 17.5428 14.761 17.6304V13.9682C14.4695 13.9283 14.1734 13.9033 13.871 13.9033C13.8187 13.9033 13.7671 13.9064 13.7148 13.9072V16.7201C13.4335 16.6318 13.135 16.581 12.8248 16.581H12.8256Z" fill="#FE2C55"/>
<path d="M24.42 11.123V13.9117C22.5596 13.9117 20.836 13.3163 19.4288 12.3068V19.5976C19.4288 23.2387 16.4667 26.2008 12.8256 26.2008C11.4184 26.2008 10.1135 25.7569 9.0415 25.0037C10.2479 26.2984 11.9661 27.111 13.8718 27.111C17.5129 27.111 20.475 24.1489 20.475 20.5078V13.2171C21.8822 14.2273 23.6059 14.822 25.4663 14.822V11.234C25.1076 11.234 24.7576 11.1949 24.4208 11.123H24.42Z" fill="#FE2C55"/>
<path d="M19.4285 19.5972V12.3064C20.8357 13.3167 22.5594 13.9113 24.4198 13.9113V11.1227C23.3454 10.893 22.3984 10.3156 21.7014 9.51546C20.5771 8.78255 19.766 7.60974 19.5129 6.24316H16.886L16.8805 20.6208C16.8204 22.2311 15.4952 23.5227 13.8708 23.5227C12.8644 23.5227 11.9744 23.0258 11.4259 22.2655C10.4656 21.76 9.80931 20.7544 9.80931 19.5964C9.80931 17.9337 11.1626 16.5804 12.8253 16.5804C13.1355 16.5804 13.4332 16.632 13.7153 16.7195V13.9066C10.1461 13.9902 7.26758 16.9172 7.26758 20.5059C7.26758 22.2421 7.94188 23.822 9.04124 25.0018C10.114 25.755 11.4181 26.1988 12.8253 26.1988C16.4664 26.1988 19.4285 23.2367 19.4285 19.5956V19.5972Z" fill="white"/>
</svg>
