<svg width="32" height="32" viewBox="0 0 32 32" fill="none" xmlns="http://www.w3.org/2000/svg">
<g clip-path="url(#clip0_866_2253)">
<circle cx="16" cy="16" r="15.5" fill="#2FD74D" stroke="#DBDBDB"/>
<path fill-rule="evenodd" clip-rule="evenodd" d="M13.1885 20.4368C13.1885 20.4368 14.7096 21.4529 16.6098 21.4529C20.0382 21.4529 22.8176 18.7032 22.8176 15.3113C22.8176 11.9195 20.0382 9.16984 16.6098 9.16984C13.1813 9.16984 10.402 11.9195 10.402 15.3113C10.402 17.2977 11.6118 18.9546 11.6118 18.9546L10.8544 21.1904L13.1885 20.4368ZM9.21957 15.3113C9.21957 11.2734 12.5283 8 16.6098 8C20.6913 8 24 11.2734 24 15.3113C24 19.3493 20.6913 22.6227 16.6098 22.6227C14.5527 22.6227 13.0494 21.7197 13.0494 21.7197L9 23L10.292 19.1067C10.292 19.1067 9.21957 17.3154 9.21957 15.3113ZM18.7824 16.1646C19.0314 16.2772 20.2422 16.8574 20.2422 16.8574C20.2422 16.8574 20.3898 16.8825 20.3982 17.0453C20.3991 17.0623 20.401 17.083 20.4032 17.1067C20.4219 17.31 20.462 17.7443 20.0692 18.1638C19.6303 18.6325 18.697 18.8494 18.2551 18.7272C18.2392 18.7227 18.2219 18.718 18.2033 18.7129C17.7082 18.5769 16.3177 18.195 15.3993 17.3477C14.4464 16.4685 13.6747 15.5432 13.359 14.8608C13.0434 14.1783 13.0609 13.7734 13.0784 13.5826C13.096 13.3917 13.1974 12.5074 13.7956 12.1283C13.7956 12.1283 13.9952 12.0031 14.0993 12.0031H14.6815C14.6815 12.0031 14.8377 12.03 14.9094 12.1909C14.981 12.3518 15.4719 13.4928 15.5084 13.5809C15.5091 13.5826 15.5099 13.5844 15.5106 13.5862C15.5486 13.6773 15.6372 13.8905 15.4873 14.0817C15.3345 14.2768 15.0148 14.641 15.0148 14.641C15.0148 14.641 14.8883 14.7537 14.998 14.9332C15.1076 15.1127 15.4934 15.7047 15.9979 16.152C16.5024 16.5993 17.1202 16.9284 17.4281 17.0286C17.7107 17.1204 17.7908 17.0157 17.8933 16.8817C17.9025 16.8697 17.912 16.8573 17.9217 16.8449C18.0399 16.6947 18.407 16.2355 18.407 16.2355C18.407 16.2355 18.5335 16.0519 18.7824 16.1646Z" fill="#FEFEFE"/>
</g>
<defs>
<clipPath id="clip0_866_2253">
<rect width="32" height="32" fill="white"/>
</clipPath>
</defs>
</svg>
